<svg width="41" height="41" viewBox="0 0 41 41" fill="none" xmlns="http://www.w3.org/2000/svg">
<circle cx="20.3621" cy="20.3621" r="20.3621" fill="#3B5BDB"/>
<path d="M19.2146 23.3199V26.0523H24.7305V28.989H15.946V23.0389C15.946 20.7917 17.0015 19.6681 19.1125 19.6681H21.1554C21.2916 19.6681 21.4023 19.617 21.4874 19.5149C21.5895 19.4127 21.6406 19.2936 21.6406 19.1574V15.5056C21.6406 15.3695 21.5895 15.2503 21.4874 15.1481C21.4023 15.046 21.2916 14.9949 21.1554 14.9949H19.6488C19.5126 14.9949 19.3934 15.046 19.2912 15.1481C19.2061 15.2503 19.1636 15.3695 19.1636 15.5056V16.808H15.7672V15.5823C15.7672 13.335 16.8227 12.2114 18.9337 12.2114H21.7683C23.8793 12.2114 24.9348 13.335 24.9348 15.5823V19.4383C24.9348 21.6855 23.8793 22.8091 21.7683 22.8091H19.6998C19.5636 22.8091 19.4445 22.8602 19.3423 22.9623C19.2572 23.0645 19.2146 23.1837 19.2146 23.3199Z" fill="white"/>
</svg>
