<svg width="41" height="41" viewBox="0 0 41 41" fill="none" xmlns="http://www.w3.org/2000/svg">
<circle cx="20.3621" cy="20.3621" r="20.3621" fill="#3B5BDB"/>
<path d="M23.8724 20.5364C24.6725 21.0982 25.0726 22.06 25.0726 23.422V25.8735C25.0726 28.1207 24.0171 29.2443 21.9061 29.2443H18.8927C16.7817 29.2443 15.7262 28.1207 15.7262 25.8735V24.5201H18.9183V26.0267C18.9183 26.1629 18.9608 26.2821 19.046 26.3842C19.1481 26.4864 19.2673 26.5375 19.4035 26.5375H21.4209C21.5571 26.5375 21.6677 26.4864 21.7528 26.3842C21.855 26.2821 21.9061 26.1629 21.9061 26.0267V22.5027C21.9061 22.3665 21.855 22.2473 21.7528 22.1452C21.6677 22.043 21.5571 21.9919 21.4209 21.9919H18.7906V19.234H21.2676C21.4038 19.234 21.5145 19.1829 21.5996 19.0808C21.7018 18.9786 21.7528 18.8595 21.7528 18.7233V15.5056C21.7528 15.3695 21.7018 15.2503 21.5996 15.1481C21.5145 15.046 21.4038 14.9949 21.2676 14.9949H19.5567C19.4205 14.9949 19.3013 15.046 19.1992 15.1481C19.1141 15.2503 19.0715 15.3695 19.0715 15.5056V17.14H15.8794V15.5823C15.8794 13.335 16.9349 12.2114 19.046 12.2114H21.7528C23.8639 12.2114 24.9194 13.335 24.9194 15.5823V17.7784C24.9194 19.1063 24.5704 20.0256 23.8724 20.5364Z" fill="white"/>
</svg>
