<svg width="75" height="85" viewBox="0 0 75 85" fill="none" xmlns="http://www.w3.org/2000/svg">
<path fill-rule="evenodd" clip-rule="evenodd" d="M36.5341 54.5662C37.326 54.8094 37.7708 55.6486 37.5275 56.4405C37.5279 56.4392 37.5276 56.4409 37.5269 56.4457C37.5211 56.4833 37.4863 56.7095 37.5061 57.1851C37.5265 57.6734 37.5997 58.3191 37.7533 59.0836C38.0603 60.6117 38.6769 62.5577 39.7736 64.6038C41.5708 67.9567 44.6628 71.5936 49.8524 74.1217L45.5408 65.6484C45.1651 64.91 45.4591 64.0069 46.1974 63.6312C46.9358 63.2555 47.8389 63.5495 48.2146 64.2878L54.3369 76.3198C54.7126 77.0581 54.4186 77.9612 53.6803 78.3369L41.6483 84.4592C40.91 84.8349 40.0069 84.5409 39.6312 83.8026C39.2555 83.0643 39.5495 82.1612 40.2878 81.7855L49.3242 77.1874C43.0526 74.358 39.2895 70.0507 37.1295 66.0211C35.8831 63.6958 35.1724 61.4683 34.8121 59.6745C34.632 58.778 34.5365 57.9755 34.5087 57.3103C34.483 56.6936 34.508 56.0537 34.6598 55.5596C34.903 54.7676 35.7422 54.3229 36.5341 54.5662Z" fill="#D6336C"/>
<path d="M10.8349 11.1242C12.0678 11.1242 12.7092 10.4133 13.0025 9.77693H13.092V10.9999H15.18V0.818127H13.0671V4.64625H13.0025C12.7191 4.0248 12.1076 3.26415 10.8299 3.26415C9.15448 3.26415 7.73758 4.56671 7.73758 7.19171C7.73758 9.7471 9.09482 11.1242 10.8349 11.1242ZM11.506 9.43887C10.467 9.43887 9.90022 8.51415 9.90022 7.18176C9.90022 5.85932 10.457 4.94952 11.506 4.94952C12.5352 4.94952 13.1119 5.81955 13.1119 7.18176C13.1119 8.54398 12.5252 9.43887 11.506 9.43887Z" fill="#D6336C"/>
<path d="M16.9213 10.9999H19.0392V6.67963C19.0392 5.74 19.7253 5.0937 20.66 5.0937C20.9533 5.0937 21.356 5.14341 21.5549 5.20804V3.32878C21.3659 3.28404 21.1025 3.25421 20.8887 3.25421C20.0336 3.25421 19.3326 3.75137 19.0542 4.69597H18.9746V3.36358H16.9213V10.9999Z" fill="#D6336C"/>
<path d="M24.6087 11.1441C25.7372 11.1441 26.468 10.6519 26.8409 9.941H26.9006V10.9999H28.9091V5.84938C28.9091 4.02977 27.3679 3.26415 25.6676 3.26415C23.8381 3.26415 22.6349 4.13915 22.3416 5.5312L24.3004 5.69029C24.4446 5.18318 24.897 4.81031 25.6577 4.81031C26.3786 4.81031 26.7912 5.17324 26.7912 5.79966V5.82949C26.7912 6.32168 26.2692 6.38631 24.9418 6.51557C23.4304 6.65477 22.0732 7.16188 22.0732 8.86713C22.0732 10.3785 23.152 11.1441 24.6087 11.1441ZM25.2152 9.68247C24.5639 9.68247 24.0966 9.37921 24.0966 8.79753C24.0966 8.20094 24.5888 7.90762 25.3345 7.80321C25.7969 7.73858 26.5526 7.62921 26.8061 7.46017V8.27054C26.8061 9.07097 26.1449 9.68247 25.2152 9.68247Z" fill="#D6336C"/>
<path d="M33.9925 14.0227C36.1751 14.0227 37.7262 13.0284 37.7262 11.0745V3.36358H35.6232V4.64625H35.5437C35.2603 4.0248 34.6389 3.26415 33.3612 3.26415C31.6857 3.26415 30.2688 4.56671 30.2688 7.16685C30.2688 9.70733 31.646 10.8906 33.3661 10.8906C34.5842 10.8906 35.2653 10.2791 35.5437 9.64767H35.6332V11.0447C35.6332 12.0937 34.962 12.5014 34.0423 12.5014C33.1076 12.5014 32.6353 12.0937 32.4613 11.6313L30.5025 11.8948C30.756 13.098 31.9343 14.0227 33.9925 14.0227ZM34.0373 9.29966C32.9982 9.29966 32.4315 8.47438 32.4315 7.15691C32.4315 5.85932 32.9883 4.94952 34.0373 4.94952C35.0664 4.94952 35.6431 5.81955 35.6431 7.15691C35.6431 8.50421 35.0565 9.29966 34.0373 9.29966Z" fill="#D6336C"/>
<path d="M46.7136 3.36358H45.2768V1.53404H43.1589V3.36358H42.1149V4.95449H43.1589V8.93176C43.149 10.4282 44.1682 11.169 45.7044 11.1043C46.2512 11.0845 46.639 10.9751 46.8528 10.9055L46.5197 9.32949C46.4153 9.34938 46.1916 9.39909 45.9927 9.39909C45.5701 9.39909 45.2768 9.24 45.2768 8.65335V4.95449H46.7136V3.36358Z" fill="#D6336C"/>
<path d="M50.3752 6.58517C50.3802 5.6008 50.9817 5.02409 51.8468 5.02409C52.7069 5.02409 53.214 5.57594 53.209 6.51557V10.9999H55.3269V6.13773C55.3319 4.34796 54.2779 3.26415 52.687 3.26415C51.5286 3.26415 50.753 3.81102 50.405 4.71088H50.3155V0.818127H48.2573V10.9999H50.3752V6.58517Z" fill="#D6336C"/>
<path d="M56.9936 10.9999H59.1115V3.36358H56.9936V10.9999ZM58.0575 2.37921C58.6889 2.37921 59.206 1.89696 59.206 1.30534C59.206 0.718695 58.6889 0.23645 58.0575 0.23645C57.4311 0.23645 56.9141 0.718695 56.9141 1.30534C56.9141 1.89696 57.4311 2.37921 58.0575 2.37921Z" fill="#D6336C"/>
<path d="M67.1618 5.54114C66.9728 4.13418 65.8393 3.26415 63.9103 3.26415C61.9565 3.26415 60.6689 4.16898 60.6738 5.64057C60.6689 6.78404 61.3897 7.5248 62.8812 7.8231L64.2037 8.08659C64.8699 8.22083 65.1731 8.46443 65.1831 8.84725C65.1731 9.29966 64.6809 9.62281 63.9402 9.62281C63.1845 9.62281 62.6824 9.29966 62.5531 8.67821L60.47 8.78759C60.6689 10.2492 61.9118 11.1491 63.9352 11.1491C65.9139 11.1491 67.3308 10.1399 67.3358 8.63347C67.3308 7.52978 66.6099 6.86855 65.1284 6.56529L63.7463 6.28688C63.0353 6.13276 62.7718 5.88915 62.7768 5.52125C62.7718 5.06387 63.2889 4.76557 63.9451 4.76557C64.6809 4.76557 65.1184 5.16827 65.2228 5.66046L67.1618 5.54114Z" fill="#D6336C"/>
<path d="M4.00018 27.9999H6.08825V26.7769H6.18271C6.47603 27.4133 7.11737 28.1242 8.35032 28.1242C10.0904 28.1242 11.4476 26.7471 11.4476 24.1917C11.4476 21.5667 10.0307 20.2641 8.3553 20.2641C7.0776 20.2641 6.46609 21.0248 6.18271 21.6463H6.11808V17.8181H4.00018V27.9999ZM6.07334 24.1818C6.07334 22.8195 6.65004 21.9495 7.67916 21.9495C8.72817 21.9495 9.28498 22.8593 9.28498 24.1818C9.28498 25.5141 8.71822 26.4389 7.67916 26.4389C6.65998 26.4389 6.07334 25.544 6.07334 24.1818Z" fill="#D6336C"/>
<path d="M16.3111 28.1491C18.6278 28.1491 20.0696 26.5632 20.0696 24.2116C20.0696 21.8451 18.6278 20.2641 16.3111 20.2641C13.9943 20.2641 12.5526 21.8451 12.5526 24.2116C12.5526 26.5632 13.9943 28.1491 16.3111 28.1491ZM16.321 26.5085C15.2521 26.5085 14.7053 25.5291 14.7053 24.1967C14.7053 22.8643 15.2521 21.8799 16.321 21.8799C17.37 21.8799 17.9169 22.8643 17.9169 24.1967C17.9169 25.5291 17.37 26.5085 16.321 26.5085Z" fill="#D6336C"/>
<path d="M23.6243 28.1441C24.7528 28.1441 25.4837 27.6519 25.8565 26.941H25.9162V27.9999H27.9247V22.8494C27.9247 21.0298 26.3835 20.2641 24.6832 20.2641C22.8537 20.2641 21.6506 21.1391 21.3572 22.5312L23.3161 22.6903C23.4602 22.1832 23.9126 21.8103 24.6733 21.8103C25.3942 21.8103 25.8068 22.1732 25.8068 22.7997V22.8295C25.8068 23.3217 25.2848 23.3863 23.9574 23.5156C22.446 23.6548 21.0888 24.1619 21.0888 25.8671C21.0888 27.3785 22.1676 28.1441 23.6243 28.1441ZM24.2308 26.6825C23.5795 26.6825 23.1122 26.3792 23.1122 25.7975C23.1122 25.2009 23.6044 24.9076 24.3501 24.8032C24.8125 24.7386 25.5682 24.6292 25.8217 24.4602V25.2705C25.8217 26.071 25.1605 26.6825 24.2308 26.6825Z" fill="#D6336C"/>
<path d="M33.6296 20.3636H32.1928V18.534H30.0749V20.3636H29.0309V21.9545H30.0749V25.9318C30.065 27.4282 31.0842 28.169 32.6204 28.1043C33.1673 28.0845 33.555 27.9751 33.7688 27.9055L33.4357 26.3295C33.3313 26.3494 33.1076 26.3991 32.9087 26.3991C32.4862 26.3991 32.1928 26.24 32.1928 25.6534V21.9545H33.6296V20.3636Z" fill="#D6336C"/>
<path d="M41.6998 28.1491C44.0165 28.1491 45.4583 26.5632 45.4583 24.2116C45.4583 21.8451 44.0165 20.2641 41.6998 20.2641C39.383 20.2641 37.9412 21.8451 37.9412 24.2116C37.9412 26.5632 39.383 28.1491 41.6998 28.1491ZM41.7097 26.5085C40.6408 26.5085 40.0939 25.5291 40.0939 24.1967C40.0939 22.8643 40.6408 21.8799 41.7097 21.8799C42.7587 21.8799 43.3056 22.8643 43.3056 24.1967C43.3056 25.5291 42.7587 26.5085 41.7097 26.5085Z" fill="#D6336C"/>
<path d="M48.9533 23.5852C48.9583 22.6008 49.5449 22.0241 50.4 22.0241C51.2502 22.0241 51.7623 22.5809 51.7573 23.5156V27.9999H53.8752V23.1377C53.8752 21.3579 52.8311 20.2641 51.2402 20.2641C50.1067 20.2641 49.2864 20.821 48.9434 21.7109H48.8539V20.3636H46.8354V27.9999H48.9533V23.5852Z" fill="#D6336C"/>
<path d="M59.6062 20.3636H58.1694V18.534H56.0515V20.3636H55.0075V21.9545H56.0515V25.9318C56.0416 27.4282 57.0607 28.169 58.597 28.1043C59.1438 28.0845 59.5316 27.9751 59.7454 27.9055L59.4123 26.3295C59.3079 26.3494 59.0842 26.3991 58.8853 26.3991C58.4627 26.3991 58.1694 26.24 58.1694 25.6534V21.9545H59.6062V20.3636Z" fill="#D6336C"/>
<path d="M64.3541 28.1491C66.6708 28.1491 68.1126 26.5632 68.1126 24.2116C68.1126 21.8451 66.6708 20.2641 64.3541 20.2641C62.0373 20.2641 60.5955 21.8451 60.5955 24.2116C60.5955 26.5632 62.0373 28.1491 64.3541 28.1491ZM64.364 26.5085C63.2951 26.5085 62.7482 25.5291 62.7482 24.1967C62.7482 22.8643 63.2951 21.8799 64.364 21.8799C65.413 21.8799 65.9599 22.8643 65.9599 24.1967C65.9599 25.5291 65.413 26.5085 64.364 26.5085Z" fill="#D6336C"/>
<path d="M5.06224 37.3636H3.62545V35.534H1.50755V37.3636H0.463516V38.9545H1.50755V42.9318C1.49761 44.4282 2.51678 45.169 4.053 45.1044C4.59988 45.0845 4.98766 44.9751 5.20144 44.9055L4.86835 43.3295C4.76394 43.3494 4.54022 43.3991 4.34136 43.3991C3.91877 43.3991 3.62545 43.24 3.62545 42.6534V38.9545H5.06224V37.3636Z" fill="#D6336C"/>
<path d="M8.72381 40.5852C8.72879 39.6008 9.33035 39.0241 10.1954 39.0241C11.0555 39.0241 11.5626 39.5759 11.5576 40.5156V44.9999H13.6755V40.1377C13.6805 38.348 12.6265 37.2642 11.0356 37.2642C9.87722 37.2642 9.10166 37.811 8.75364 38.7109H8.66416V34.8181H6.60592V44.9999H8.72381V40.5852Z" fill="#D6336C"/>
<path d="M18.8224 45.1491C20.7116 45.1491 21.9843 44.2293 22.2826 42.8124L20.3238 42.6832C20.11 43.2649 19.5631 43.5681 18.8572 43.5681C17.7982 43.5681 17.127 42.8671 17.127 41.7286V41.7237H22.3273V41.142C22.3273 38.5468 20.7563 37.2642 18.7378 37.2642C16.4907 37.2642 15.034 38.86 15.034 41.2166C15.034 43.6377 16.4708 45.1491 18.8224 45.1491ZM17.127 40.4112C17.1718 39.5411 17.833 38.8451 18.7726 38.8451C19.6924 38.8451 20.3288 39.5014 20.3337 40.4112H17.127Z" fill="#D6336C"/>
<path d="M30.4 45.1491C32.4333 45.1491 33.711 43.9559 33.8105 42.2009H31.8119C31.6876 43.0163 31.1507 43.4737 30.4248 43.4737C29.4355 43.4737 28.7941 42.6434 28.7941 41.1818C28.7941 39.74 29.4404 38.9147 30.4248 38.9147C31.2004 38.9147 31.6975 39.4268 31.8119 40.1874H33.8105C33.721 38.4225 32.3836 37.2642 30.39 37.2642C28.0732 37.2642 26.6414 38.87 26.6414 41.2116C26.6414 43.5333 28.0484 45.1491 30.4 45.1491Z" fill="#D6336C"/>
<path d="M37.344 45.1441C38.4726 45.1441 39.2034 44.6519 39.5763 43.941H39.6359V44.9999H41.6444V39.8494C41.6444 38.0298 40.1033 37.2642 38.403 37.2642C36.5734 37.2642 35.3703 38.1392 35.077 39.5312L37.0358 39.6903C37.18 39.1832 37.6324 38.8103 38.393 38.8103C39.1139 38.8103 39.5266 39.1732 39.5266 39.7997V39.8295C39.5266 40.3217 39.0045 40.3863 37.6771 40.5156C36.1658 40.6548 34.8085 41.1619 34.8085 42.8671C34.8085 44.3785 35.8873 45.1441 37.344 45.1441ZM37.9506 43.6825C37.2993 43.6825 36.8319 43.3792 36.8319 42.7975C36.8319 42.2009 37.3241 41.9076 38.0699 41.8032C38.5322 41.7386 39.2879 41.6292 39.5415 41.4602V42.2705C39.5415 43.071 38.8802 43.6825 37.9506 43.6825Z" fill="#D6336C"/>
<path d="M45.4055 40.5852C45.4104 39.6008 45.9971 39.0241 46.8522 39.0241C47.7023 39.0241 48.2144 39.5809 48.2094 40.5156V44.9999H50.3273V40.1377C50.3273 38.3579 49.2833 37.2642 47.6924 37.2642C46.5589 37.2642 45.7386 37.821 45.3955 38.7109H45.306V37.3636H43.2876V44.9999H45.4055V40.5852Z" fill="#D6336C"/>
<path d="M58.8424 37.3636H56.6002L55.0193 42.8274H54.9397L53.3538 37.3636H51.1166L53.7863 44.9999H56.1727L58.8424 37.3636Z" fill="#D6336C"/>
<path d="M61.885 45.1441C63.0136 45.1441 63.7444 44.6519 64.1173 43.941H64.1769V44.9999H66.1855V39.8494C66.1855 38.0298 64.6443 37.2642 62.944 37.2642C61.1144 37.2642 59.9113 38.1392 59.618 39.5312L61.5768 39.6903C61.721 39.1832 62.1734 38.8103 62.934 38.8103C63.6549 38.8103 64.0676 39.1732 64.0676 39.7997V39.8295C64.0676 40.3217 63.5455 40.3863 62.2181 40.5156C60.7068 40.6548 59.3495 41.1619 59.3495 42.8671C59.3495 44.3785 60.4284 45.1441 61.885 45.1441ZM62.4916 43.6825C61.8403 43.6825 61.373 43.3792 61.373 42.7975C61.373 42.2009 61.8652 41.9076 62.6109 41.8032C63.0732 41.7386 63.8289 41.6292 64.0825 41.4602V42.2705C64.0825 43.071 63.4213 43.6825 62.4916 43.6825Z" fill="#D6336C"/>
<path d="M74.1823 39.5411C73.9933 38.1342 72.8598 37.2642 70.9308 37.2642C68.977 37.2642 67.6894 38.169 67.6943 39.6406C67.6894 40.784 68.4103 41.5248 69.9017 41.8231L71.2242 42.0866C71.8904 42.2208 72.1936 42.4644 72.2036 42.8472C72.1936 43.2997 71.7014 43.6228 70.9607 43.6228C70.205 43.6228 69.7029 43.2997 69.5736 42.6782L67.4905 42.7876C67.6894 44.2492 68.9323 45.1491 70.9557 45.1491C72.9344 45.1491 74.3513 44.1399 74.3563 42.6335C74.3513 41.5298 73.6304 40.8686 72.1489 40.5653L70.7668 40.2869C70.0558 40.1328 69.7924 39.8891 69.7973 39.5213C69.7924 39.0639 70.3094 38.7656 70.9657 38.7656C71.7014 38.7656 72.1389 39.1683 72.2433 39.6605L74.1823 39.5411Z" fill="#D6336C"/>
</svg>
