<svg width="52" height="49" viewBox="0 0 52 49" fill="none" xmlns="http://www.w3.org/2000/svg">
<path fill-rule="evenodd" clip-rule="evenodd" d="M50.5502 29.298C51.4902 29.878 51.7821 31.1102 51.2021 32.0503L41.7501 47.3689C41.1701 48.309 39.9379 48.6008 38.9978 48.0208C38.0578 47.4408 37.766 46.2085 38.346 45.2685L45.3084 33.9845C28.2562 37.5447 14.1821 37.6447 1.30537 32.8756C0.269557 32.4919 -0.259137 31.3412 0.124496 30.3054C0.508129 29.2696 1.65881 28.7409 2.69462 29.1246C14.546 33.514 27.7153 33.5453 44.26 30.1169L33.1311 23.2502C32.1911 22.6702 31.8993 21.4379 32.4793 20.4979C33.0593 19.5579 34.2915 19.266 35.2316 19.8461L50.5502 29.298Z" fill="#D6336C"/>
<path d="M8.96379 11.1242C10.1967 11.1242 10.8381 10.4133 11.1314 9.77692H11.2209V10.9999H13.309V0.818115H11.196V4.64624H11.1314C10.848 4.02479 10.2365 3.26414 8.95882 3.26414C7.28339 3.26414 5.86649 4.56669 5.86649 7.19169C5.86649 9.74709 7.22373 11.1242 8.96379 11.1242ZM9.63495 9.43885C8.59589 9.43885 8.02913 8.51414 8.02913 7.18175C8.02913 5.85931 8.58595 4.94951 9.63495 4.94951C10.6641 4.94951 11.2408 5.81954 11.2408 7.18175C11.2408 8.54397 10.6541 9.43885 9.63495 9.43885Z" fill="#D6336C"/>
<path d="M15.0503 10.9999H17.1682V6.67962C17.1682 5.73999 17.8542 5.09368 18.7889 5.09368C19.0822 5.09368 19.4849 5.1434 19.6838 5.20803V3.32877C19.4949 3.28402 19.2314 3.25419 19.0176 3.25419C18.1625 3.25419 17.4615 3.75135 17.1831 4.69596H17.1035V3.36357H15.0503V10.9999Z" fill="#D6336C"/>
<path d="M22.7376 11.1441C23.8661 11.1441 24.597 10.6519 24.9698 9.94098H25.0295V10.9999H27.038V5.84937C27.038 4.02976 25.4968 3.26414 23.7965 3.26414C21.967 3.26414 20.7639 4.13914 20.4705 5.53118L22.4293 5.69027C22.5735 5.18317 23.0259 4.8103 23.7866 4.8103C24.5075 4.8103 24.9201 5.17323 24.9201 5.79965V5.82948C24.9201 6.32167 24.3981 6.3863 23.0707 6.51556C21.5593 6.65476 20.2021 7.16186 20.2021 8.86712C20.2021 10.3785 21.2809 11.1441 22.7376 11.1441ZM23.3441 9.68246C22.6928 9.68246 22.2255 9.3792 22.2255 8.79752C22.2255 8.20093 22.7177 7.9076 23.4634 7.8032C23.9258 7.73857 24.6815 7.62919 24.935 7.46016V8.27053C24.935 9.07096 24.2738 9.68246 23.3441 9.68246Z" fill="#D6336C"/>
<path d="M32.1215 14.0227C34.304 14.0227 35.8551 13.0283 35.8551 11.0745V3.36357H33.7521V4.64624H33.6726C33.3892 4.02479 32.7678 3.26414 31.4901 3.26414C29.8146 3.26414 28.3977 4.5667 28.3977 7.16684C28.3977 9.70732 29.7749 10.8906 31.495 10.8906C32.7131 10.8906 33.3942 10.2791 33.6726 9.64766H33.7621V11.0447C33.7621 12.0937 33.0909 12.5014 32.1712 12.5014C31.2365 12.5014 30.7642 12.0937 30.5902 11.6313L28.6314 11.8948C28.885 13.0979 30.0632 14.0227 32.1215 14.0227ZM32.1662 9.29965C31.1271 9.29965 30.5604 8.47437 30.5604 7.15689C30.5604 5.85931 31.1172 4.94951 32.1662 4.94951C33.1953 4.94951 33.772 5.81954 33.772 7.15689C33.772 8.5042 33.1854 9.29965 32.1662 9.29965Z" fill="#D6336C"/>
</svg>
