<svg width="77" height="47" viewBox="0 0 77 47" fill="none" xmlns="http://www.w3.org/2000/svg">
<path fill-rule="evenodd" clip-rule="evenodd" d="M18.4659 16.5662C17.674 16.8094 17.2292 17.6486 17.4725 18.4405C17.4721 18.4392 17.4723 18.4409 17.4731 18.4457C17.4789 18.4833 17.5137 18.7095 17.4939 19.1851C17.4735 19.6734 17.4002 20.3191 17.2467 21.0836C16.9397 22.6117 16.3231 24.5577 15.2263 26.6038C13.4291 29.9567 10.3371 33.5936 5.14759 36.1217L9.45917 27.6484C9.83487 26.91 9.54089 26.0069 8.80255 25.6312C8.06421 25.2555 7.16111 25.5495 6.78541 26.2878L0.663103 38.3198C0.287407 39.0581 0.581388 39.9612 1.31973 40.3369L13.3517 46.4592C14.09 46.8349 14.9931 46.5409 15.3688 45.8026C15.7445 45.0643 15.4505 44.1612 14.7122 43.7855L5.67577 39.1874C11.9474 36.358 15.7105 32.0507 17.8705 28.0211C19.1168 25.6958 19.8275 23.4683 20.1879 21.6745C20.368 20.778 20.4635 19.9755 20.4913 19.3103C20.517 18.6936 20.492 18.0537 20.3402 17.5596C20.0969 16.7676 19.2578 16.3229 18.4659 16.5662Z" fill="#D6336C"/>
<path d="M7.06221 3.36369H5.62542V1.53415H3.50752V3.36369H2.46349V4.9546H3.50752V8.93187C3.49758 10.4283 4.51675 11.1691 6.05297 11.1045C6.59985 11.0846 6.98763 10.9752 7.20141 10.9056L6.86832 9.3296C6.76391 9.34949 6.54019 9.3992 6.34133 9.3992C5.91874 9.3992 5.62542 9.24011 5.62542 8.65346V4.9546H7.06221V3.36369Z" fill="#D6336C"/>
<path d="M10.7238 6.58528C10.7288 5.60091 11.3303 5.0242 12.1954 5.0242C13.0555 5.0242 13.5626 5.57605 13.5576 6.51568V11.0001H15.6755V6.13784C15.6805 4.34807 14.6265 3.26426 13.0356 3.26426C11.8772 3.26426 11.1016 3.81114 10.7536 4.71099H10.6641V0.818237H8.60589V11.0001H10.7238V6.58528Z" fill="#D6336C"/>
<path d="M20.8223 11.1492C22.7115 11.1492 23.9843 10.2295 24.2826 8.81256L22.3237 8.68329C22.11 9.26497 21.5631 9.56824 20.8571 9.56824C19.7982 9.56824 19.127 8.86724 19.127 7.72875V7.72378H24.3273V7.1421C24.3273 4.54693 22.7563 3.26426 20.7378 3.26426C18.4907 3.26426 17.034 4.86014 17.034 7.21668C17.034 9.63784 18.4708 11.1492 20.8223 11.1492ZM19.127 6.41128C19.1718 5.54125 19.833 4.84523 20.7726 4.84523C21.6924 4.84523 22.3287 5.50148 22.3337 6.41128H19.127Z" fill="#D6336C"/>
<path d="M32.3999 11.1492C34.4333 11.1492 35.711 9.95602 35.8104 8.20105H33.8119C33.6876 9.01639 33.1506 9.47378 32.4248 9.47378C31.4354 9.47378 30.7941 8.64352 30.7941 7.18187C30.7941 5.74011 31.4404 4.91483 32.4248 4.91483C33.2003 4.91483 33.6975 5.4269 33.8119 6.18756H35.8104C35.7209 4.42264 34.3836 3.26426 32.39 3.26426C30.0732 3.26426 28.6414 4.87008 28.6414 7.2117C28.6414 9.53344 30.0484 11.1492 32.3999 11.1492Z" fill="#D6336C"/>
<path d="M39.344 11.1442C40.4725 11.1442 41.2034 10.652 41.5762 9.94111H41.6359V11.0001H43.6444V5.84949C43.6444 4.02989 42.1032 3.26426 40.4029 3.26426C38.5734 3.26426 37.3703 4.13926 37.0769 5.53131L39.0358 5.6904C39.1799 5.18329 39.6323 4.81042 40.393 4.81042C41.1139 4.81042 41.5265 5.17335 41.5265 5.79977V5.8296C41.5265 6.32179 41.0045 6.38642 39.6771 6.51568C38.1657 6.65489 36.8085 7.16199 36.8085 8.86724C36.8085 10.3786 37.8873 11.1442 39.344 11.1442ZM39.9505 9.68258C39.2992 9.68258 38.8319 9.37932 38.8319 8.79764C38.8319 8.20105 39.3241 7.90773 40.0698 7.80332C40.5322 7.73869 41.2879 7.62932 41.5414 7.46028V8.27065C41.5414 9.07108 40.8802 9.68258 39.9505 9.68258Z" fill="#D6336C"/>
<path d="M47.4054 6.58528C47.4104 5.60091 47.997 5.0242 48.8522 5.0242C49.7023 5.0242 50.2144 5.58102 50.2094 6.51568V11.0001H52.3273V6.13784C52.3273 4.35801 51.2833 3.26426 49.6924 3.26426C48.5588 3.26426 47.7385 3.82108 47.3955 4.71099H47.306V3.36369H45.2875V11.0001H47.4054V6.58528Z" fill="#D6336C"/>
<path d="M60.8424 3.36369H58.6002L57.0192 8.82747H56.9397L55.3538 3.36369H53.1165L55.7863 11.0001H58.1726L60.8424 3.36369Z" fill="#D6336C"/>
<path d="M63.885 11.1442C65.0136 11.1442 65.7444 10.652 66.1173 9.94111H66.1769V11.0001H68.1854V5.84949C68.1854 4.02989 66.6442 3.26426 64.944 3.26426C63.1144 3.26426 61.9113 4.13926 61.618 5.53131L63.5768 5.6904C63.7209 5.18329 64.1734 4.81042 64.934 4.81042C65.6549 4.81042 66.0675 5.17335 66.0675 5.79977V5.8296C66.0675 6.32179 65.5455 6.38642 64.2181 6.51568C62.7067 6.65489 61.3495 7.16199 61.3495 8.86724C61.3495 10.3786 62.4283 11.1442 63.885 11.1442ZM64.4915 9.68258C63.8403 9.68258 63.3729 9.37932 63.3729 8.79764C63.3729 8.20105 63.8651 7.90773 64.6109 7.80332C65.0732 7.73869 65.8289 7.62932 66.0824 7.46028V8.27065C66.0824 9.07108 65.4212 9.68258 64.4915 9.68258Z" fill="#D6336C"/>
<path d="M76.1822 5.54125C75.9933 4.13429 74.8598 3.26426 72.9308 3.26426C70.977 3.26426 69.6893 4.16909 69.6943 5.64068C69.6893 6.78415 70.4102 7.52491 71.9017 7.82321L73.2241 8.0867C73.8903 8.22094 74.1936 8.46454 74.2035 8.84736C74.1936 9.29977 73.7014 9.62292 72.9606 9.62292C72.205 9.62292 71.7028 9.29977 71.5736 8.67832L69.4905 8.7877C69.6893 10.2493 70.9322 11.1492 72.9557 11.1492C74.9344 11.1492 76.3513 10.14 76.3562 8.63358C76.3513 7.52989 75.6304 6.86866 74.1489 6.5654L72.7668 6.28699C72.0558 6.13287 71.7923 5.88926 71.7973 5.52136C71.7923 5.06398 72.3094 4.76568 72.9656 4.76568C73.7014 4.76568 74.1389 5.16838 74.2433 5.66057L76.1822 5.54125Z" fill="#D6336C"/>
</svg>
