<svg width="198" height="69" viewBox="0 0 198 69" fill="none" xmlns="http://www.w3.org/2000/svg">
<path fill-rule="evenodd" clip-rule="evenodd" d="M19.7966 12.7103C18.4846 12.7388 17.3613 11.7398 17.2529 10.4145C17.1403 9.03843 18.1646 7.83162 19.5407 7.71906C20.6278 7.63014 21.7451 8.03825 22.6221 8.47463C23.5982 8.96037 24.6709 9.68159 25.7679 10.6353C27.9699 12.5496 30.3695 15.4867 32.3661 19.6321C35.9598 27.0937 38.2195 38.3985 35.8041 54.6973L49.7001 45.4757C50.8505 44.7122 52.402 45.026 53.1655 46.1764C53.9289 47.3268 53.6152 48.8784 52.4648 49.6418L33.7173 62.0829C32.5668 62.8464 31.0153 62.5327 30.2519 61.3822L17.8107 42.6348C17.0473 41.4843 17.361 39.9328 18.5114 39.1694C19.6619 38.4059 21.2134 38.7196 21.9768 39.8701L30.943 53.3812C33.1023 38.1912 30.8974 28.1056 27.8613 21.8017C26.1418 18.2315 24.1464 15.8509 22.4875 14.4087C21.6541 13.6842 20.93 13.2175 20.3945 12.951C20.0237 12.7665 19.8324 12.721 19.7966 12.7103Z" fill="#D6336C"/>
<path d="M41.8452 13.8636H43.9631V9.77692H44.0277C44.321 10.4133 44.9624 11.1242 46.1953 11.1242C47.9354 11.1242 49.2926 9.74709 49.2926 7.19169C49.2926 4.56669 47.8757 3.26414 46.2003 3.26414C44.9226 3.26414 44.3111 4.02479 44.0277 4.64624H43.9333V3.36357H41.8452V13.8636ZM43.9183 7.18175C43.9183 5.81954 44.495 4.94951 45.5242 4.94951C46.5732 4.94951 47.13 5.85931 47.13 7.18175C47.13 8.51414 46.5632 9.43885 45.5242 9.43885C44.505 9.43885 43.9183 8.54397 43.9183 7.18175Z" fill="#D6336C"/>
<path d="M50.7046 10.9999H52.8225V6.67962C52.8225 5.73999 53.5085 5.09368 54.4432 5.09368C54.7365 5.09368 55.1392 5.1434 55.3381 5.20803V3.32877C55.1492 3.28402 54.8857 3.25419 54.6719 3.25419C53.8168 3.25419 53.1158 3.75135 52.8374 4.69596H52.7578V3.36357H50.7046V10.9999Z" fill="#D6336C"/>
<path d="M59.5577 11.1491C61.4469 11.1491 62.7197 10.2293 63.018 8.81243L61.0591 8.68317C60.8454 9.26485 60.2985 9.56812 59.5925 9.56812C58.5336 9.56812 57.8624 8.86712 57.8624 7.72863V7.72366H63.0627V7.14198C63.0627 4.54681 61.4917 3.26414 59.4732 3.26414C57.226 3.26414 55.7694 4.86002 55.7694 7.21655C55.7694 9.63772 57.2062 11.1491 59.5577 11.1491ZM57.8624 6.41116C57.9072 5.54113 58.5684 4.8451 59.508 4.8451C60.4278 4.8451 61.0641 5.50135 61.0691 6.41116H57.8624Z" fill="#D6336C"/>
<path d="M70.7985 5.54113C70.6096 4.13417 69.476 3.26414 67.5471 3.26414C65.5932 3.26414 64.3056 4.16897 64.3106 5.64056C64.3056 6.78402 65.0265 7.52479 66.518 7.82309L67.8404 8.08658C68.5066 8.22081 68.8099 8.46442 68.8198 8.84723C68.8099 9.29965 68.3177 9.6228 67.5769 9.6228C66.8212 9.6228 66.3191 9.29965 66.1898 8.6782L64.1067 8.78758C64.3056 10.2492 65.5485 11.1491 67.5719 11.1491C69.5506 11.1491 70.9675 10.1398 70.9725 8.63346C70.9675 7.52976 70.2466 6.86854 68.7651 6.56527L67.383 6.28687C66.6721 6.13275 66.4086 5.88914 66.4135 5.52124C66.4086 5.06385 66.9256 4.76556 67.5819 4.76556C68.3177 4.76556 68.7552 5.16826 68.8596 5.66044L70.7985 5.54113Z" fill="#D6336C"/>
<path d="M78.6598 5.54113C78.4709 4.13417 77.3374 3.26414 75.4084 3.26414C73.4546 3.26414 72.1669 4.16897 72.1719 5.64056C72.1669 6.78402 72.8878 7.52479 74.3793 7.82309L75.7017 8.08658C76.3679 8.22081 76.6712 8.46442 76.6811 8.84723C76.6712 9.29965 76.179 9.6228 75.4382 9.6228C74.6825 9.6228 74.1804 9.29965 74.0512 8.6782L71.9681 8.78758C72.1669 10.2492 73.4098 11.1491 75.4333 11.1491C77.412 11.1491 78.8289 10.1398 78.8338 8.63346C78.8289 7.52976 78.108 6.86854 76.6264 6.56527L75.2443 6.28687C74.5334 6.13275 74.2699 5.88914 74.2749 5.52124C74.2699 5.06385 74.7869 4.76556 75.4432 4.76556C76.179 4.76556 76.6165 5.16826 76.7209 5.66044L78.6598 5.54113Z" fill="#D6336C"/>
<path d="M87.4695 3.36357H86.0327V1.53402H83.9148V3.36357H82.8708V4.95448H83.9148V8.93175C83.9048 10.4282 84.924 11.169 86.4602 11.1043C87.0071 11.0845 87.3949 10.9751 87.6087 10.9055L87.2756 9.32948C87.1712 9.34937 86.9475 9.39908 86.7486 9.39908C86.326 9.39908 86.0327 9.23999 86.0327 8.65334V4.95448H87.4695V3.36357Z" fill="#D6336C"/>
<path d="M91.1311 6.58516C91.136 5.60079 91.7376 5.02408 92.6026 5.02408C93.4627 5.02408 93.9698 5.57593 93.9649 6.51556V10.9999H96.0828V6.13772C96.0877 4.34794 95.0338 3.26414 93.4428 3.26414C92.2845 3.26414 91.5089 3.81101 91.1609 4.71087H91.0714V0.818115H89.0132V10.9999H91.1311V6.58516Z" fill="#D6336C"/>
<path d="M101.23 11.1491C103.119 11.1491 104.392 10.2293 104.69 8.81243L102.731 8.68317C102.517 9.26485 101.97 9.56812 101.264 9.56812C100.205 9.56812 99.5343 8.86712 99.5343 7.72863V7.72366H104.735V7.14198C104.735 4.54681 103.164 3.26414 101.145 3.26414C98.8979 3.26414 97.4412 4.86002 97.4412 7.21655C97.4412 9.63772 98.878 11.1491 101.23 11.1491ZM99.5343 6.41116C99.579 5.54113 100.24 4.8451 101.18 4.8451C102.1 4.8451 102.736 5.50135 102.741 6.41116H99.5343Z" fill="#D6336C"/>
<path d="M109.397 10.9999H111.485V9.77692H111.579C111.873 10.4133 112.514 11.1242 113.747 11.1242C115.487 11.1242 116.844 9.74709 116.844 7.19169C116.844 4.56669 115.427 3.26414 113.752 3.26414C112.474 3.26414 111.863 4.02479 111.579 4.64624H111.515V0.818115H109.397V10.9999ZM111.47 7.18175C111.47 5.81954 112.047 4.94951 113.076 4.94951C114.125 4.94951 114.681 5.85931 114.681 7.18175C114.681 8.51414 114.115 9.43885 113.076 9.43885C112.056 9.43885 111.47 8.54397 111.47 7.18175Z" fill="#D6336C"/>
<path d="M123.154 7.74851C123.159 8.77266 122.458 9.30959 121.698 9.30959C120.897 9.30959 120.38 8.7478 120.375 7.84794V3.36357H118.257V8.22579C118.262 10.0106 119.306 11.0994 120.843 11.0994C121.991 11.0994 122.816 10.5077 123.159 9.61286H123.239V10.9999H125.272V3.36357H123.154V7.74851Z" fill="#D6336C"/>
<path d="M131.028 3.36357H129.591V1.53402H127.473V3.36357H126.429V4.95448H127.473V8.93175C127.463 10.4282 128.483 11.169 130.019 11.1043C130.566 11.0845 130.954 10.9751 131.167 10.9055L130.834 9.32948C130.73 9.34937 130.506 9.39908 130.307 9.39908C129.885 9.39908 129.591 9.23999 129.591 8.65334V4.95448H131.028V3.36357Z" fill="#D6336C"/>
<path d="M136.469 3.36357H135.033V1.53402H132.915V3.36357H131.871V4.95448H132.915V8.93175C132.905 10.4282 133.924 11.169 135.46 11.1043C136.007 11.0845 136.395 10.9751 136.609 10.9055L136.276 9.32948C136.171 9.34937 135.947 9.39908 135.749 9.39908C135.326 9.39908 135.033 9.23999 135.033 8.65334V4.95448H136.469V3.36357Z" fill="#D6336C"/>
<path d="M141.217 11.1491C143.534 11.1491 144.976 9.56314 144.976 7.21158C144.976 4.8451 143.534 3.26414 141.217 3.26414C138.901 3.26414 137.459 4.8451 137.459 7.21158C137.459 9.56314 138.901 11.1491 141.217 11.1491ZM141.227 9.50846C140.158 9.50846 139.612 8.52905 139.612 7.19667C139.612 5.86428 140.158 4.87991 141.227 4.87991C142.276 4.87991 142.823 5.86428 142.823 7.19667C142.823 8.52905 142.276 9.50846 141.227 9.50846Z" fill="#D6336C"/>
<path d="M148.471 6.58516C148.476 5.60079 149.063 5.02408 149.918 5.02408C150.768 5.02408 151.28 5.5809 151.275 6.51556V10.9999H153.393V6.13772C153.393 4.35789 152.349 3.26414 150.758 3.26414C149.624 3.26414 148.804 3.82096 148.461 4.71087H148.371V3.36357H146.353V10.9999H148.471V6.58516Z" fill="#D6336C"/>
<path d="M52.3874 20.3636H50.9507V18.534H48.8328V20.3636H47.7887V21.9545H48.8328V25.9318C48.8228 27.4282 49.842 28.169 51.3782 28.1043C51.9251 28.0844 52.3129 27.9751 52.5267 27.9055L52.1936 26.3295C52.0892 26.3494 51.8654 26.3991 51.6666 26.3991C51.244 26.3991 50.9507 26.24 50.9507 25.6533V21.9545H52.3874V20.3636Z" fill="#D6336C"/>
<path d="M57.1353 28.1491C59.4521 28.1491 60.8938 26.5631 60.8938 24.2116C60.8938 21.8451 59.4521 20.2641 57.1353 20.2641C54.8186 20.2641 53.3768 21.8451 53.3768 24.2116C53.3768 26.5631 54.8186 28.1491 57.1353 28.1491ZM57.1453 26.5085C56.0764 26.5085 55.5295 25.5291 55.5295 24.1967C55.5295 22.8643 56.0764 21.8799 57.1453 21.8799C58.1943 21.8799 58.7411 22.8643 58.7411 24.1967C58.7411 25.5291 58.1943 26.5085 57.1453 26.5085Z" fill="#D6336C"/>
<path d="M68.9515 31.0227C71.1341 31.0227 72.6852 30.0283 72.6852 28.0745V20.3636H70.5822V21.6462H70.5027C70.2193 21.0248 69.5979 20.2641 68.3202 20.2641C66.6447 20.2641 65.2278 21.5667 65.2278 24.1668C65.2278 26.7073 66.605 27.8906 68.3251 27.8906C69.5432 27.8906 70.2243 27.2791 70.5027 26.6477H70.5922V28.0447C70.5922 29.0937 69.921 29.5014 69.0013 29.5014C68.0666 29.5014 67.5943 29.0937 67.4203 28.6313L65.4615 28.8948C65.715 30.0979 66.8933 31.0227 68.9515 31.0227ZM68.9963 26.2996C67.9572 26.2996 67.3905 25.4744 67.3905 24.1569C67.3905 22.8593 67.9473 21.9495 68.9963 21.9495C70.0254 21.9495 70.6021 22.8195 70.6021 24.1569C70.6021 25.5042 70.0155 26.2996 68.9963 26.2996Z" fill="#D6336C"/>
<path d="M77.8507 28.1491C79.7399 28.1491 81.0126 27.2293 81.3109 25.8124L79.3521 25.6832C79.1383 26.2648 78.5915 26.5681 77.8855 26.5681C76.8265 26.5681 76.1554 25.8671 76.1554 24.7286V24.7237H81.3557V24.142C81.3557 21.5468 79.7846 20.2641 77.7662 20.2641C75.519 20.2641 74.0623 21.86 74.0623 24.2166C74.0623 26.6377 75.4991 28.1491 77.8507 28.1491ZM76.1554 23.4112C76.2001 22.5411 76.8613 21.8451 77.801 21.8451C78.7207 21.8451 79.3571 22.5014 79.3621 23.4112H76.1554Z" fill="#D6336C"/>
<path d="M84.8557 23.5852C84.8606 22.6008 85.4473 22.0241 86.3024 22.0241C87.1525 22.0241 87.6646 22.5809 87.6596 23.5156V27.9999H89.7775V23.1377C89.7775 21.3579 88.7335 20.2641 87.1426 20.2641C86.0091 20.2641 85.1888 20.821 84.8457 21.7109H84.7562V20.3636H82.7378V27.9999H84.8557V23.5852Z" fill="#D6336C"/>
<path d="M94.9269 28.1491C96.8161 28.1491 98.0888 27.2293 98.3871 25.8124L96.4283 25.6832C96.2145 26.2648 95.6676 26.5681 94.9617 26.5681C93.9027 26.5681 93.2316 25.8671 93.2316 24.7286V24.7237H98.4318V24.142C98.4318 21.5468 96.8608 20.2641 94.8424 20.2641C92.5952 20.2641 91.1385 21.86 91.1385 24.2166C91.1385 26.6377 92.5753 28.1491 94.9269 28.1491ZM93.2316 23.4112C93.2763 22.5411 93.9375 21.8451 94.8772 21.8451C95.7969 21.8451 96.4333 22.5014 96.4382 23.4112H93.2316Z" fill="#D6336C"/>
<path d="M99.8139 27.9999H101.932V23.6796C101.932 22.74 102.618 22.0937 103.553 22.0937C103.846 22.0937 104.249 22.1434 104.447 22.208V20.3288C104.259 20.284 103.995 20.2542 103.781 20.2542C102.926 20.2542 102.225 20.7514 101.947 21.696H101.867V20.3636H99.8139V27.9999Z" fill="#D6336C"/>
<path d="M107.501 28.1441C108.63 28.1441 109.361 27.6519 109.734 26.941H109.793V27.9999H111.802V22.8494C111.802 21.0298 110.26 20.2641 108.56 20.2641C106.731 20.2641 105.528 21.1391 105.234 22.5312L107.193 22.6903C107.337 22.1832 107.79 21.8103 108.55 21.8103C109.271 21.8103 109.684 22.1732 109.684 22.7996V22.8295C109.684 23.3217 109.162 23.3863 107.834 23.5156C106.323 23.6548 104.966 24.1619 104.966 25.8671C104.966 27.3785 106.045 28.1441 107.501 28.1441ZM108.108 26.6825C107.457 26.6825 106.989 26.3792 106.989 25.7975C106.989 25.2009 107.481 24.9076 108.227 24.8032C108.689 24.7386 109.445 24.6292 109.699 24.4602V25.2705C109.699 26.071 109.037 26.6825 108.108 26.6825Z" fill="#D6336C"/>
<path d="M117.507 20.3636H116.07V18.534H113.952V20.3636H112.908V21.9545H113.952V25.9318C113.942 27.4282 114.961 28.169 116.497 28.1043C117.044 28.0844 117.432 27.9751 117.646 27.9055L117.313 26.3295C117.208 26.3494 116.985 26.3991 116.786 26.3991C116.363 26.3991 116.07 26.24 116.07 25.6533V21.9545H117.507V20.3636Z" fill="#D6336C"/>
<path d="M122.284 28.1491C124.173 28.1491 125.446 27.2293 125.745 25.8124L123.786 25.6832C123.572 26.2648 123.025 26.5681 122.319 26.5681C121.26 26.5681 120.589 25.8671 120.589 24.7286V24.7237H125.789V24.142C125.789 21.5468 124.218 20.2641 122.2 20.2641C119.953 20.2641 118.496 21.86 118.496 24.2166C118.496 26.6377 119.933 28.1491 122.284 28.1491ZM120.589 23.4112C120.634 22.5411 121.295 21.8451 122.235 21.8451C123.154 21.8451 123.791 22.5014 123.796 23.4112H120.589Z" fill="#D6336C"/>
<path d="M131.719 30.8636C133.295 30.8636 134.13 30.0582 134.563 28.8252L137.531 20.3735L135.289 20.3636L133.693 25.9715H133.613L132.032 20.3636H129.805L132.544 28.2187L132.42 28.5418C132.142 29.2577 131.61 29.2925 130.864 29.0639L130.387 30.6448C130.69 30.7741 131.182 30.8636 131.719 30.8636Z" fill="#D6336C"/>
<path d="M141.805 28.1491C144.122 28.1491 145.564 26.5631 145.564 24.2116C145.564 21.8451 144.122 20.2641 141.805 20.2641C139.488 20.2641 138.047 21.8451 138.047 24.2116C138.047 26.5631 139.488 28.1491 141.805 28.1491ZM141.815 26.5085C140.746 26.5085 140.199 25.5291 140.199 24.1967C140.199 22.8643 140.746 21.8799 141.815 21.8799C142.864 21.8799 143.411 22.8643 143.411 24.1967C143.411 25.5291 142.864 26.5085 141.815 26.5085Z" fill="#D6336C"/>
<path d="M151.838 24.7485C151.843 25.7727 151.142 26.3096 150.381 26.3096C149.581 26.3096 149.064 25.7478 149.059 24.8479V20.3636H146.941V25.2258C146.946 27.0106 147.99 28.0994 149.526 28.0994C150.675 28.0994 151.5 27.5077 151.843 26.6129H151.922V27.9999H153.956V20.3636H151.838V24.7485Z" fill="#D6336C"/>
<path d="M155.65 27.9999H157.768V23.6796C157.768 22.74 158.454 22.0937 159.389 22.0937C159.682 22.0937 160.085 22.1434 160.283 22.208V20.3288C160.094 20.284 159.831 20.2542 159.617 20.2542C158.762 20.2542 158.061 20.7514 157.783 21.696H157.703V20.3636H155.65V27.9999Z" fill="#D6336C"/>
<path d="M168.069 28.1491C170.102 28.1491 171.38 26.9559 171.479 25.2009H169.481C169.357 26.0163 168.82 26.4737 168.094 26.4737C167.104 26.4737 166.463 25.6434 166.463 24.1818C166.463 22.74 167.109 21.9147 168.094 21.9147C168.869 21.9147 169.366 22.4268 169.481 23.1874H171.479C171.39 21.4225 170.053 20.2641 168.059 20.2641C165.742 20.2641 164.31 21.87 164.31 24.2116C164.31 26.5333 165.717 28.1491 168.069 28.1491Z" fill="#D6336C"/>
<path d="M176.286 28.1491C178.602 28.1491 180.044 26.5631 180.044 24.2116C180.044 21.8451 178.602 20.2641 176.286 20.2641C173.969 20.2641 172.527 21.8451 172.527 24.2116C172.527 26.5631 173.969 28.1491 176.286 28.1491ZM176.296 26.5085C175.227 26.5085 174.68 25.5291 174.68 24.1967C174.68 22.8643 175.227 21.8799 176.296 21.8799C177.345 21.8799 177.892 22.8643 177.892 24.1967C177.892 25.5291 177.345 26.5085 176.296 26.5085Z" fill="#D6336C"/>
<path d="M184.235 28.1242C185.468 28.1242 186.11 27.4133 186.403 26.7769H186.492V27.9999H188.58V17.8181H186.468V21.6462H186.403C186.12 21.0248 185.508 20.2641 184.23 20.2641C182.555 20.2641 181.138 21.5667 181.138 24.1917C181.138 26.7471 182.495 28.1242 184.235 28.1242ZM184.906 26.4389C183.867 26.4389 183.301 25.5141 183.301 24.1818C183.301 22.8593 183.857 21.9495 184.906 21.9495C185.936 21.9495 186.512 22.8195 186.512 24.1818C186.512 25.544 185.926 26.4389 184.906 26.4389Z" fill="#D6336C"/>
<path d="M193.802 28.1491C195.691 28.1491 196.964 27.2293 197.262 25.8124L195.303 25.6832C195.09 26.2648 194.543 26.5681 193.837 26.5681C192.778 26.5681 192.107 25.8671 192.107 24.7286V24.7237H197.307V24.142C197.307 21.5468 195.736 20.2641 193.717 20.2641C191.47 20.2641 190.014 21.86 190.014 24.2166C190.014 26.6377 191.45 28.1491 193.802 28.1491ZM192.107 23.4112C192.151 22.5411 192.813 21.8451 193.752 21.8451C194.672 21.8451 195.308 22.5014 195.313 23.4112H192.107Z" fill="#D6336C"/>
</svg>
