<svg width="74" height="52" viewBox="0 0 74 52" fill="none" xmlns="http://www.w3.org/2000/svg">
<path fill-rule="evenodd" clip-rule="evenodd" d="M38.7357 17.3677C38.2896 18.0658 38.494 18.9933 39.1921 19.4393C39.1909 19.4386 39.1922 19.4397 39.1959 19.4429C39.2246 19.4678 39.3977 19.6176 39.6904 19.993C39.991 20.3783 40.3533 20.9179 40.7312 21.5999C41.4866 22.9633 42.2765 24.8456 42.7653 27.115C43.5663 30.8339 43.5645 35.6075 41.2461 40.8942L39.0463 31.6449C38.8546 30.839 38.0458 30.341 37.2399 30.5327C36.4339 30.7244 35.936 31.5331 36.1277 32.3391L39.2514 45.4727C39.4431 46.2787 40.2519 46.7766 41.0578 46.5849L54.1914 43.4612C54.9974 43.2695 55.4953 42.4607 55.3036 41.6548C55.1119 40.8489 54.3032 40.3509 53.4973 40.5426L43.6334 42.8886C46.5814 36.6718 46.6608 30.9529 45.6981 26.4833C45.1426 23.9042 44.2421 21.7465 43.3553 20.146C42.9122 19.3462 42.4654 18.6728 42.0559 18.1478C41.6762 17.6611 41.2429 17.1896 40.8073 16.9113C40.1092 16.4653 39.1817 16.6696 38.7357 17.3677Z" fill="#D6336C"/>
<path d="M4.59872 2.54545H3.16193V0.715909H1.04403V2.54545H0V4.13636H1.04403V8.11364C1.03409 9.61009 2.05327 10.3509 3.58949 10.2862C4.13636 10.2663 4.52415 10.157 4.73793 10.0874L4.40483 8.51136C4.30043 8.53125 4.0767 8.58097 3.87784 8.58097C3.45526 8.58097 3.16193 8.42188 3.16193 7.83523V4.13636H4.59872V2.54545Z" fill="#D6336C"/>
<path d="M8.2603 5.76705C8.26527 4.78267 8.86683 4.20597 9.73189 4.20597C10.592 4.20597 11.0991 4.75781 11.0941 5.69744V10.1818H13.212V5.3196C13.217 3.52983 12.163 2.44602 10.5721 2.44602C9.41371 2.44602 8.63814 2.9929 8.29013 3.89276H8.20064V0H6.1424V10.1818H8.2603V5.76705Z" fill="#D6336C"/>
<path d="M18.3588 10.331C20.248 10.331 21.5208 9.41122 21.8191 7.99432L19.8603 7.86506C19.6465 8.44673 19.0996 8.75 18.3936 8.75C17.3347 8.75 16.6635 8.04901 16.6635 6.91051V6.90554H21.8638V6.32386C21.8638 3.72869 20.2928 2.44602 18.2743 2.44602C16.0272 2.44602 14.5705 4.0419 14.5705 6.39844C14.5705 8.8196 16.0073 10.331 18.3588 10.331ZM16.6635 5.59304C16.7083 4.72301 17.3695 4.02699 18.3091 4.02699C19.2289 4.02699 19.8652 4.68324 19.8702 5.59304H16.6635Z" fill="#D6336C"/>
<path d="M29.9364 10.331C31.9698 10.331 33.2475 9.13778 33.3469 7.38281H31.3484C31.2241 8.19815 30.6871 8.65554 29.9613 8.65554C28.9719 8.65554 28.3306 7.82528 28.3306 6.36364C28.3306 4.92188 28.9769 4.09659 29.9613 4.09659C30.7369 4.09659 31.234 4.60866 31.3484 5.36932H33.3469C33.2575 3.6044 31.9201 2.44602 29.9265 2.44602C27.6097 2.44602 26.1779 4.05185 26.1779 6.39347C26.1779 8.7152 27.5849 10.331 29.9364 10.331Z" fill="#D6336C"/>
<path d="M36.8805 10.326C38.0091 10.326 38.7399 9.83381 39.1127 9.12287H39.1724V10.1818H41.1809V5.03125C41.1809 3.21165 39.6397 2.44602 37.9395 2.44602C36.1099 2.44602 34.9068 3.32102 34.6135 4.71307L36.5723 4.87216C36.7164 4.36506 37.1689 3.99219 37.9295 3.99219C38.6504 3.99219 39.063 4.35511 39.063 4.98153V5.01136C39.063 5.50355 38.541 5.56818 37.2136 5.69744C35.7022 5.83665 34.345 6.34375 34.345 8.04901C34.345 9.56037 35.4238 10.326 36.8805 10.326ZM37.487 8.86435C36.8358 8.86435 36.3684 8.56108 36.3684 7.9794C36.3684 7.38281 36.8606 7.08949 37.6064 6.98509C38.0687 6.92045 38.8244 6.81108 39.0779 6.64205V7.45241C39.0779 8.25284 38.4167 8.86435 37.487 8.86435Z" fill="#D6336C"/>
<path d="M44.9419 5.76705C44.9469 4.78267 45.5336 4.20597 46.3887 4.20597C47.2388 4.20597 47.7509 4.76278 47.7459 5.69744V10.1818H49.8638V5.3196C49.8638 3.53977 48.8198 2.44602 47.2289 2.44602C46.0953 2.44602 45.275 3.00284 44.932 3.89276H44.8425V2.54545H42.824V10.1818H44.9419V5.76705Z" fill="#D6336C"/>
<path d="M58.3789 2.54545H56.1367L54.5558 8.00923H54.4762L52.8903 2.54545H50.6531L53.3228 10.1818H55.7092L58.3789 2.54545Z" fill="#D6336C"/>
<path d="M61.4215 10.326C62.5501 10.326 63.2809 9.83381 63.6538 9.12287H63.7134V10.1818H65.7219V5.03125C65.7219 3.21165 64.1808 2.44602 62.4805 2.44602C60.6509 2.44602 59.4478 3.32102 59.1545 4.71307L61.1133 4.87216C61.2575 4.36506 61.7099 3.99219 62.4705 3.99219C63.1914 3.99219 63.604 4.35511 63.604 4.98153V5.01136C63.604 5.50355 63.082 5.56818 61.7546 5.69744C60.2433 5.83665 58.886 6.34375 58.886 8.04901C58.886 9.56037 59.9648 10.326 61.4215 10.326ZM62.0281 8.86435C61.3768 8.86435 60.9094 8.56108 60.9094 7.9794C60.9094 7.38281 61.4016 7.08949 62.1474 6.98509C62.6097 6.92045 63.3654 6.81108 63.619 6.64205V7.45241C63.619 8.25284 62.9577 8.86435 62.0281 8.86435Z" fill="#D6336C"/>
<path d="M73.7188 4.72301C73.5298 3.31605 72.3963 2.44602 70.4673 2.44602C68.5135 2.44602 67.2259 3.35085 67.2308 4.82244C67.2259 5.96591 67.9467 6.70668 69.4382 7.00497L70.7607 7.26847C71.4269 7.4027 71.7301 7.64631 71.7401 8.02912C71.7301 8.48153 71.2379 8.80469 70.4972 8.80469C69.7415 8.80469 69.2394 8.48153 69.1101 7.86009L67.027 7.96946C67.2259 9.43111 68.4687 10.331 70.4922 10.331C72.4709 10.331 73.8878 9.32173 73.8928 7.81534C73.8878 6.71165 73.1669 6.05043 71.6854 5.74716L70.3033 5.46875C69.5923 5.31463 69.3288 5.07102 69.3338 4.70313C69.3288 4.24574 69.8459 3.94744 70.5021 3.94744C71.2379 3.94744 71.6754 4.35014 71.7798 4.84233L73.7188 4.72301Z" fill="#D6336C"/>
</svg>
